<?xml version="1.0" standalone="no"?>
<!DOCTYPE svg PUBLIC "-//W3C//DTD SVG 20010904//EN"
 "http://www.w3.org/TR/2001/REC-SVG-20010904/DTD/svg10.dtd">
<svg version="1.0" xmlns="http://www.w3.org/2000/svg"
 width="260.000000pt" height="260.000000pt" viewBox="0 0 260.000000 260.000000"
 preserveAspectRatio="xMidYMid meet">
<metadata>
Created by potrace 1.11, written by Peter Selinger 2001-2013
</metadata>
<g transform="translate(0.000000,260.000000) scale(0.100000,-0.100000)"
fill="#000000" stroke="none">
<path d="M1130 2590 c0 -17 40 -21 169 -18 89 2 126 7 129 16 3 9 -31 12 -147
12 -92 0 -151 -4 -151 -10z"/>
<path d="M932 2550 c-11 -14 -29 -20 -58 -20 -25 0 -47 -6 -54 -15 -7 -8 -27
-15 -46 -15 -23 0 -37 -6 -44 -20 -7 -12 -21 -20 -38 -20 -17 0 -32 -8 -40
-21 -8 -12 -19 -18 -28 -15 -8 3 -20 -3 -26 -14 -7 -11 -20 -20 -30 -20 -24 0
-78 -33 -78 -48 0 -7 -11 -17 -24 -21 -13 -5 -26 -17 -29 -25 -4 -9 -13 -16
-20 -16 -30 0 -218 -247 -275 -360 -13 -25 -27 -52 -31 -60 -14 -24 -31 -85
-31 -107 0 -12 -5 -23 -11 -25 -22 -7 -32 -105 -33 -313 -1 -222 10 -296 55
-387 5 -10 9 -25 9 -34 0 -9 11 -29 25 -46 14 -16 28 -42 31 -56 4 -15 15 -37
26 -49 18 -19 19 -26 8 -57 -8 -25 -18 -36 -31 -36 -11 0 -22 -7 -25 -15 -4
-8 -16 -15 -29 -15 -15 0 -25 -7 -28 -21 -4 -15 -11 -20 -22 -15 -10 4 -19 -3
-27 -19 -6 -14 -15 -25 -20 -25 -4 0 -8 -7 -8 -15 0 -23 44 -2 92 45 23 22 49
40 57 40 8 0 21 6 30 14 9 8 29 26 44 40 l28 26 30 -32 c16 -18 46 -57 65 -86
19 -28 41 -52 48 -52 7 0 26 -15 43 -32 53 -55 69 -68 86 -68 9 0 21 -9 27
-20 6 -11 19 -20 30 -20 10 0 21 -9 25 -19 3 -10 18 -22 33 -26 15 -4 35 -13
44 -22 9 -8 21 -12 27 -9 9 6 51 -30 51 -44 0 -4 13 -5 29 -2 22 3 33 -1 43
-17 10 -17 23 -21 62 -21 35 0 52 -5 62 -17 10 -15 27 -18 100 -16 71 2 95 -2
128 -19 59 -29 178 -34 202 -7 9 10 14 22 10 27 -4 4 -66 7 -136 8 -87 1 -134
5 -144 13 -8 7 -53 16 -100 20 -57 6 -90 13 -101 25 -9 9 -32 16 -50 16 -23 0
-38 6 -44 19 -6 11 -26 21 -49 25 -22 3 -45 13 -52 21 -7 8 -20 15 -30 15 -9
0 -25 9 -35 20 -11 12 -26 18 -35 15 -12 -4 -19 1 -23 15 -3 11 -13 20 -25 20
-11 0 -22 9 -25 20 -3 12 -14 20 -26 20 -14 0 -25 9 -31 25 -5 14 -16 25 -24
25 -7 0 -25 15 -40 34 -14 19 -35 38 -46 41 -11 3 -20 11 -20 18 0 6 -9 21
-21 33 -11 12 -28 37 -38 55 -14 27 -25 35 -52 37 -30 3 -36 8 -53 50 -10 26
-30 61 -42 79 -13 17 -24 38 -24 46 0 8 -7 20 -15 27 -8 7 -15 25 -15 41 0 15
-4 31 -10 34 -5 3 -10 20 -10 36 0 17 -7 44 -16 60 -23 45 -23 393 0 437 9 17
16 40 16 52 0 11 4 28 9 38 4 9 15 33 23 52 59 137 108 224 167 297 14 17 37
47 51 67 14 19 28 36 33 36 4 0 23 17 42 39 19 21 54 51 77 67 23 16 50 36 59
44 9 8 28 25 42 38 14 12 34 22 45 22 11 0 25 7 32 15 7 8 22 15 34 15 12 0
29 9 39 20 9 11 27 20 40 20 13 0 32 9 42 20 13 15 31 20 65 20 33 0 50 5 54
15 4 12 23 15 85 15 71 0 104 10 88 27 -3 3 -40 7 -82 8 -66 4 -78 1 -93 -15z"/>
<path d="M1493 2563 c-23 -3 -30 -8 -26 -19 4 -10 24 -14 83 -14 57 0 81 -4
90 -15 7 -9 29 -15 54 -15 29 0 47 -6 59 -20 9 -11 29 -20 45 -20 16 0 37 -9
47 -20 10 -11 29 -20 42 -20 13 0 26 -7 29 -15 4 -8 19 -15 34 -15 20 0 31 -6
35 -19 3 -11 15 -23 26 -26 10 -4 24 -15 29 -26 6 -10 18 -19 27 -19 23 0 197
-180 240 -248 19 -31 41 -62 47 -67 19 -17 86 -160 86 -183 0 -13 7 -25 15
-28 8 -4 15 -15 15 -26 0 -11 5 -29 12 -41 20 -36 30 -123 35 -294 4 -161 15
-207 29 -117 8 55 -4 284 -16 299 -4 5 -10 30 -13 55 -11 88 -19 119 -33 131
-8 6 -14 19 -14 29 0 9 -11 38 -25 64 -14 26 -25 52 -25 59 0 7 -21 43 -47 81
-27 38 -53 78 -60 90 -22 38 -201 218 -212 212 -5 -4 -13 3 -16 14 -4 12 -18
25 -31 30 -13 5 -24 14 -24 20 0 5 -11 10 -24 10 -16 0 -27 7 -31 20 -4 12
-15 20 -30 20 -12 0 -25 7 -29 15 -3 9 -18 15 -35 15 -20 0 -30 6 -34 20 -4
16 -14 20 -45 20 -23 0 -45 6 -52 15 -7 8 -29 15 -50 15 -24 0 -43 7 -55 20
-18 20 -63 24 -152 13z"/>
<path d="M1340 2385 c-19 -34 -22 -47 -13 -56 10 -10 15 -6 23 17 11 28 12 28
26 10 8 -11 14 -23 14 -28 0 -4 7 -8 15 -8 17 0 21 35 5 45 -5 3 -10 15 -10
25 0 11 -8 24 -18 29 -15 8 -22 2 -42 -34z"/>
<path d="M1031 2396 c-30 -32 -26 -85 8 -98 20 -7 22 -6 12 6 -20 23 -10 60
17 64 17 3 22 9 20 25 -4 31 -30 32 -57 3z"/>
<path d="M1125 2411 c-3 -5 -1 -12 5 -16 5 -3 10 -21 10 -40 0 -43 16 -54 32
-20 l11 25 29 -27 28 -27 0 25 c0 14 -5 30 -12 37 -9 9 -9 15 0 24 16 16 15
28 -3 28 -9 0 -18 -7 -21 -15 -4 -8 -12 -15 -19 -15 -7 0 -15 7 -19 15 -6 17
-32 20 -41 6z"/>
<path d="M1275 2407 c-12 -31 -1 -82 19 -85 15 -3 18 0 13 20 -3 12 -8 34 -11
47 -7 31 -14 37 -21 18z"/>
<path d="M905 2381 c-3 -5 5 -17 17 -25 23 -16 37 -8 38 22 0 14 -46 17 -55 3z"/>
<path d="M1586 2381 c-4 -5 -3 -16 0 -24 3 -9 -2 -27 -11 -40 -22 -34 -1 -45
22 -11 10 14 26 34 36 45 9 10 17 24 17 29 0 12 -57 13 -64 1z"/>
<path d="M1678 2313 c-16 -20 -28 -42 -28 -50 0 -20 28 -16 39 6 6 10 22 22
36 25 29 7 32 23 8 42 -24 18 -24 18 -55 -23z"/>
<path d="M810 2315 c0 -14 5 -25 10 -25 6 0 10 -14 10 -31 0 -20 4 -29 13 -27
18 7 21 47 3 54 -9 3 -16 17 -16 30 0 13 -4 24 -10 24 -5 0 -10 -11 -10 -25z"/>
<path d="M877 2323 c-7 -12 11 -53 23 -53 11 0 13 20 4 44 -6 17 -20 21 -27 9z"/>
<path d="M960 2300 c0 -13 5 -20 13 -17 6 2 12 10 12 17 0 7 -6 15 -12 18 -8
2 -13 -5 -13 -18z"/>
<path d="M766 2270 c7 -51 20 -80 35 -80 29 0 17 54 -21 100 l-21 25 7 -45z"/>
<path d="M694 2266 c-8 -21 30 -86 50 -86 11 0 6 41 -9 70 -17 32 -32 38 -41
16z"/>
<path d="M1430 2270 c0 -5 5 -10 10 -10 6 0 10 5 10 10 0 6 -4 10 -10 10 -5 0
-10 -4 -10 -10z"/>
<path d="M1783 2251 c-25 -12 -33 -22 -33 -45 0 -28 0 -28 26 -11 14 9 27 15
29 13 1 -2 8 -14 15 -27 17 -33 32 -13 28 40 -3 50 -15 55 -65 30z"/>
<path d="M1345 2250 c-16 -7 -17 -9 -3 -9 9 -1 20 4 23 9 7 11 7 11 -20 0z"/>
<path d="M1006 2205 c-3 -10 1 -18 12 -22 33 -12 54 -43 48 -69 -10 -37 -64
-32 -79 8 -4 10 -12 15 -21 12 -11 -4 -13 -12 -5 -31 13 -34 12 -41 -9 -48
-11 -3 -24 -16 -30 -29 -6 -13 -24 -32 -41 -42 -17 -10 -31 -25 -31 -32 0 -12
-3 -12 -15 -2 -10 9 -15 9 -15 1 0 -6 5 -11 10 -11 15 0 32 -49 25 -71 -4 -11
-18 -19 -38 -21 -38 -4 -49 -32 -20 -53 10 -7 14 -17 10 -22 -5 -4 -15 1 -23
12 -14 19 -16 19 -25 3 -11 -19 -45 -23 -69 -8 -10 6 -20 4 -32 -7 -17 -15
-19 -15 -36 0 -17 15 -19 15 -35 0 -26 -26 -32 -8 -8 25 21 30 28 72 13 72 -5
0 -14 -11 -20 -24 -6 -14 -27 -43 -47 -64 -39 -44 -40 -78 -1 -66 11 4 26 6
31 6 6 -1 71 -4 145 -6 74 -2 147 -7 162 -11 23 -6 29 -3 39 19 15 32 32 33
59 4 17 -18 32 -23 71 -22 27 0 49 -2 50 -5 0 -3 2 -32 4 -63 3 -39 12 -68 27
-90 21 -30 154 -186 169 -198 4 -3 16 -25 28 -49 22 -46 21 -58 -11 -141 -9
-24 -9 -24 -53 24 -52 56 -62 80 -45 111 16 31 5 90 -22 117 l-21 21 -18 -24
c-10 -13 -19 -31 -19 -39 0 -8 -7 -24 -15 -34 -19 -26 -19 -70 0 -86 8 -7 15
-21 15 -32 0 -24 17 -58 41 -81 18 -16 36 -64 28 -71 -2 -2 -29 0 -59 4 -30 4
-136 8 -235 9 -99 1 -227 6 -285 10 -58 4 -110 4 -115 0 -6 -4 -20 2 -31 14
-20 21 -25 36 -42 115 -4 18 -11 34 -17 35 -17 3 -17 -59 -1 -73 9 -7 16 -21
16 -31 0 -11 4 -27 8 -37 50 -104 80 -157 95 -166 10 -6 25 -26 34 -44 9 -18
25 -38 37 -44 11 -6 32 -24 45 -39 13 -16 30 -29 38 -29 7 0 19 -11 25 -25 6
-14 20 -25 30 -25 10 0 21 -7 24 -15 4 -8 14 -15 25 -15 10 0 25 -10 34 -22
13 -20 18 -21 36 -10 23 15 35 8 41 -23 3 -16 14 -21 54 -26 28 -4 59 -11 70
-16 10 -6 47 -13 81 -16 34 -4 81 -13 105 -22 54 -19 114 -19 166 -1 22 8 74
18 114 22 40 3 78 10 83 15 6 4 34 11 63 15 41 5 52 10 52 25 0 19 -12 24 -81
34 -35 4 -49 2 -59 -10 -16 -20 -60 -20 -60 0 0 8 11 17 25 21 28 7 33 22 10
30 -24 9 -65 -5 -65 -22 0 -10 -7 -14 -22 -12 -17 2 -22 9 -21 26 4 33 -35 49
-73 29 -22 -11 -63 -14 -171 -13 l-143 2 0 -24 c0 -24 -2 -24 -52 -18 -29 4
-57 11 -62 17 -6 5 -28 9 -51 9 -28 0 -46 6 -58 20 -9 11 -23 20 -31 20 -8 0
-16 10 -18 22 -2 15 -9 22 -20 20 -9 -1 -22 7 -28 18 -6 11 -16 20 -23 20 -7
1 -21 13 -32 27 -11 15 -35 42 -54 62 -18 20 -49 56 -68 80 -46 61 -28 77 26
23 23 -22 41 -34 41 -27 0 19 19 30 31 18 6 -6 6 -20 -1 -38 -12 -32 -9 -38
14 -29 9 3 16 17 16 30 0 46 92 62 98 16 2 -12 7 -22 12 -22 5 0 16 -3 25 -7
15 -5 16 -3 6 15 -15 28 -14 42 4 42 8 0 15 -5 15 -11 0 -12 59 -3 74 12 17
15 45 10 56 -11 6 -11 17 -20 25 -20 8 0 15 -4 15 -8 0 -8 62 -109 80 -130 6
-7 15 -10 21 -7 12 8 12 62 -2 70 -5 4 -14 18 -19 31 -5 13 -16 24 -25 24 -9
0 -15 9 -15 25 0 23 2 24 20 15 15 -8 20 -8 20 1 0 14 52 2 62 -14 12 -19 10
-24 -12 -30 -20 -5 -29 -37 -10 -37 5 0 17 -15 26 -32 19 -37 31 -48 56 -48
21 0 42 36 33 57 -5 14 -7 14 -18 -1 -12 -16 -14 -17 -27 -1 -12 14 -10 17 8
22 17 4 21 10 16 29 -3 13 -3 35 0 49 5 21 12 25 42 25 35 0 36 1 31 30 -6 25
-3 30 13 30 58 0 162 183 132 231 -7 10 -12 29 -12 42 0 31 -19 88 -36 108
-20 23 -17 38 9 44 50 14 76 105 29 105 -35 0 -44 14 -28 44 13 26 14 27 21 7
7 -21 29 -28 39 -12 9 14 -25 86 -47 102 -14 10 -3 43 15 47 12 2 25 -14 45
-57 30 -66 57 -79 81 -41 16 26 44 25 68 -1 16 -18 27 -20 79 -17 33 3 94 1
135 -4 74 -9 94 -11 242 -24 64 -6 77 -10 82 -26 6 -24 26 -15 26 12 0 10 -6
31 -14 47 -8 15 -25 50 -38 76 -13 26 -30 56 -38 65 -28 31 -66 87 -73 105 -3
9 -12 17 -19 17 -20 1 -58 36 -58 54 0 21 -16 21 -24 0 -9 -22 -8 -24 9 -24
10 0 15 -10 15 -31 0 -35 -23 -36 -28 -2 -2 15 -8 19 -23 16 -14 -4 -19 0 -19
16 0 12 6 30 12 41 10 15 10 22 1 31 -9 9 -13 6 -18 -13 -7 -29 -43 -56 -49
-36 -13 44 -15 45 -42 40 -25 -5 -26 -3 -22 27 5 32 -5 43 -16 16 -3 -8 -12
-15 -21 -15 -8 0 -15 -4 -15 -10 0 -22 -40 -8 -57 20 -18 32 -43 40 -43 15 0
-8 9 -19 20 -25 11 -6 20 -17 20 -25 0 -8 5 -15 10 -15 6 0 10 -6 10 -14 0 -9
7 -12 20 -9 11 3 20 0 20 -6 0 -6 9 -11 20 -11 15 0 20 -7 21 -27 0 -28 1 -28
11 -5 11 23 32 29 43 12 3 -5 -6 -17 -20 -26 -22 -14 -24 -21 -19 -58 9 -55
19 -64 38 -30 l15 29 1 -27 c0 -17 6 -28 13 -28 19 0 47 -33 47 -53 0 -20 -30
-23 -48 -5 -7 7 -12 20 -12 30 0 10 -4 18 -10 18 -5 0 -10 -18 -10 -40 0 -40
-12 -52 -26 -28 -5 7 -7 27 -5 45 1 18 -2 33 -7 33 -5 0 -12 20 -14 44 -6 46
-33 91 -56 91 -7 0 -18 11 -25 25 -7 14 -27 31 -45 39 -17 8 -32 20 -32 27 0
7 -12 14 -27 16 -39 4 -40 30 -3 71 20 24 27 38 19 42 -17 11 -64 -29 -67 -58
-2 -15 -10 -27 -17 -27 -21 0 -28 19 -15 35 10 13 8 15 -16 16 -16 0 -42 2
-59 4 -50 7 -217 6 -262 -1 -36 -5 -45 -3 -68 20 -30 30 -31 31 -39 11z m156
-78 c13 -20 3 -32 -27 -35 -36 -4 -61 23 -43 45 13 16 58 9 70 -10z m248 -17
c0 -11 -4 -20 -10 -20 -5 0 -10 9 -10 20 0 11 5 20 10 20 6 0 10 -9 10 -20z
m-67 -3 c3 -7 -1 -21 -9 -32 -24 -32 -16 -58 26 -88 31 -22 40 -35 40 -58 0
-40 -14 -36 -47 13 -16 24 -40 48 -53 55 -14 7 -29 18 -35 26 -5 7 -18 16 -27
20 -18 6 -25 56 -11 70 12 13 111 8 116 -6z m-365 -159 c-5 -34 -38 -37 -38
-4 0 20 5 26 21 26 15 0 20 -5 17 -22z m230 6 c-8 -40 -68 -44 -68 -4 0 16 6
20 36 20 28 0 35 -4 32 -16z m402 -19 c0 -28 -4 -35 -20 -35 -15 0 -20 7 -20
28 0 32 7 42 27 42 8 0 13 -12 13 -35z m244 4 c17 -33 12 -59 -7 -40 -6 6 -19
11 -29 11 -13 0 -18 8 -18 30 0 42 33 41 54 -1z m-582 -23 c15 -21 8 -36 -16
-36 -25 0 -44 30 -31 49 6 11 36 3 47 -13z m727 -25 c15 -14 33 -39 41 -56 8
-16 25 -44 37 -61 26 -35 30 -52 9 -35 -8 7 -20 11 -28 10 -37 -5 -108 2 -108
11 0 6 7 10 15 10 10 0 15 10 15 28 l1 27 17 -32 c12 -22 21 -30 30 -24 16 10
1 56 -22 64 -9 4 -16 13 -16 22 0 8 -4 15 -10 15 -5 0 -10 9 -10 21 0 16 -4
19 -20 14 -14 -4 -20 -2 -20 9 0 17 33 27 39 12 2 -5 16 -21 30 -35z m-528
-33 c5 -10 9 -31 9 -48 0 -29 13 -40 25 -20 10 16 25 11 25 -8 0 -21 -18 -42
-37 -42 -7 0 -13 9 -13 19 0 11 -5 21 -12 23 -6 2 -12 21 -12 41 -1 36 -9 47
-21 27 -11 -17 -25 -11 -25 12 0 12 8 30 17 40 17 19 18 19 26 -4 5 -13 13
-31 18 -40z m-372 15 c7 -21 14 -51 14 -68 2 -25 -2 -30 -21 -31 -12 -1 -31
-9 -41 -18 -23 -21 -41 -20 -68 3 -15 12 -23 30 -23 50 0 39 10 39 39 1 26
-36 37 -32 46 13 8 42 26 87 34 87 3 0 12 -17 20 -37z m141 -33 c7 -17 20 -30
30 -30 18 0 34 -23 23 -34 -14 -13 -41 -5 -46 14 -7 25 -47 28 -47 3 0 -10 19
-37 43 -59 105 -104 111 -112 99 -136 -6 -13 -12 -34 -14 -48 -5 -42 -35 -36
-81 16 -49 56 -77 99 -77 119 0 19 19 19 26 0 4 -8 10 -12 15 -9 25 15 -5 94
-37 94 -27 0 -33 7 -27 31 3 12 14 19 29 19 18 0 24 5 24 23 0 47 20 45 40 -3z
m466 5 c11 -45 1 -70 -29 -73 -16 -2 -31 -10 -34 -18 -3 -8 -9 -14 -14 -14
-17 0 -49 34 -49 52 0 20 20 24 37 7 13 -13 53 34 53 62 0 26 29 13 36 -16z
m217 -31 c5 -27 3 -33 -16 -38 -25 -6 -37 2 -19 13 7 4 14 22 14 40 1 38 13
29 21 -15z m-1047 -10 c33 13 46 -32 14 -52 -17 -10 -25 -9 -45 4 -27 18 -31
34 -13 52 9 9 14 9 19 0 4 -6 15 -8 25 -4z m478 -50 c9 -24 7 -34 -8 -34 -16
0 -29 27 -20 41 8 14 21 11 28 -7z m-140 -605 c-7 -12 -31 -11 -39 1 -3 6 -3
20 1 32 l7 22 18 -23 c11 -13 16 -27 13 -32z m36 -25 c0 -9 -5 -14 -12 -12
-18 6 -21 28 -4 28 9 0 16 -7 16 -16z m-100 -164 c0 -5 -4 -10 -10 -10 -5 0
-10 5 -10 10 0 6 5 10 10 10 6 0 10 -4 10 -10z m-60 -280 c0 -23 -31 -27 -49
-7 -14 17 -4 27 26 27 16 0 23 -6 23 -20z m300 -31 c0 -14 -7 -19 -30 -19 -23
0 -30 4 -30 20 0 24 30 42 47 28 7 -6 13 -19 13 -29z m-112 16 c12 -3 22 -12
22 -20 0 -11 -12 -15 -47 -15 -27 0 -58 3 -71 6 -52 14 40 42 96 29z"/>
<path d="M1077 1833 c-11 -10 -8 -43 3 -43 6 0 10 11 10 25 0 26 -2 29 -13 18z"/>
<path d="M885 2180 c-3 -6 2 -13 12 -17 10 -3 21 -8 26 -10 4 -2 7 0 7 6 0 16
-38 33 -45 21z"/>
<path d="M1961 2174 c0 -11 3 -14 6 -6 3 7 2 16 -1 19 -3 4 -6 -2 -5 -13z"/>
<path d="M1656 2165 c-9 -9 -16 -24 -15 -33 0 -14 2 -14 6 -2 3 8 12 21 21 27
9 7 13 15 10 18 -3 3 -13 -1 -22 -10z"/>
<path d="M1875 2170 c-8 -13 4 -50 16 -50 5 0 9 14 9 30 0 30 -13 40 -25 20z"/>
<path d="M526 2143 c-12 -12 -6 -51 9 -57 8 -3 15 -13 15 -21 0 -22 34 -15 38
8 4 18 -51 80 -62 70z"/>
<path d="M820 2137 c0 -8 7 -17 15 -21 8 -3 15 -2 15 3 0 5 -7 14 -15 21 -12
10 -15 10 -15 -3z"/>
<path d="M1797 2114 c-11 -11 -8 -44 3 -44 15 0 24 30 13 41 -5 5 -12 6 -16 3z"/>
<path d="M1917 2113 c-14 -13 -6 -33 12 -33 11 0 21 -9 24 -21 3 -12 10 -18
16 -14 16 9 13 35 -3 35 -8 0 -18 9 -21 20 -6 20 -16 25 -28 13z"/>
<path d="M2003 2109 c-9 -9 -1 -31 28 -88 22 -42 49 -85 60 -97 10 -11 19 -30
19 -42 0 -28 18 -29 22 0 4 30 23 33 35 6 10 -21 12 -21 18 -5 5 11 1 24 -8
35 -8 9 -17 28 -19 41 -4 34 -28 40 -28 7 0 -14 -4 -26 -10 -26 -5 0 -10 6
-10 13 0 7 -13 23 -30 35 -34 25 -38 46 -12 61 13 7 14 13 6 21 -8 8 -14 9
-18 1 -11 -17 -26 -13 -26 7 0 28 -14 44 -27 31z"/>
<path d="M755 2100 c-3 -6 1 -13 10 -16 19 -8 30 0 20 15 -8 14 -22 14 -30 1z"/>
<path d="M866 2084 c-17 -17 -20 -32 -8 -51 9 -14 62 29 62 52 0 20 -34 20
-54 -1z"/>
<path d="M450 2065 c0 -21 27 -30 45 -15 19 16 10 30 -21 30 -15 0 -24 -6 -24
-15z"/>
<path d="M695 2070 c-8 -14 3 -30 21 -30 8 0 14 9 14 20 0 21 -24 28 -35 10z"/>
<path d="M790 2042 c0 -27 -21 -44 -37 -31 -18 16 -17 -10 2 -47 9 -18 15 -23
15 -12 0 9 16 26 35 38 19 12 35 25 35 28 0 13 -15 28 -32 35 -13 5 -18 1 -18
-11z"/>
<path d="M427 2043 c-13 -13 -7 -56 11 -69 27 -21 31 -17 18 25 -13 44 -19 54
-29 44z"/>
<path d="M660 2032 c-8 -13 -30 -32 -48 -44 -18 -11 -40 -34 -48 -51 -9 -16
-25 -40 -36 -51 -11 -12 -31 -41 -44 -66 -13 -25 -28 -52 -33 -60 -24 -44 -31
-61 -31 -79 0 -10 -7 -24 -15 -31 -16 -14 -20 -57 -6 -78 11 -17 21 7 21 48 0
16 5 32 10 35 6 3 10 17 10 30 0 12 7 25 15 29 8 3 15 17 15 31 0 14 5 25 10
25 6 0 10 4 10 10 0 5 27 47 60 92 33 45 60 85 60 90 0 4 6 8 13 8 24 1 59 39
55 62 l-3 23 -15 -23z"/>
<path d="M526 2033 c-12 -13 -6 -53 9 -53 9 0 15 9 15 24 0 26 -12 40 -24 29z"/>
<path d="M2110 2025 c0 -8 5 -15 10 -15 6 0 10 7 10 15 0 8 -4 15 -10 15 -5 0
-10 -7 -10 -15z"/>
<path d="M670 1940 c-19 -22 -41 -40 -47 -40 -7 0 -13 -7 -13 -15 0 -27 44
-17 65 14 11 17 28 32 38 35 11 3 17 12 15 22 -5 30 -22 25 -58 -16z"/>
<path d="M740 1910 c0 -11 5 -20 10 -20 6 0 10 9 10 20 0 11 -4 20 -10 20 -5
0 -10 -9 -10 -20z"/>
<path d="M323 1851 c8 -37 44 -81 68 -81 22 0 28 8 22 31 -4 13 -11 18 -23 14
-13 -4 -20 0 -24 13 -4 11 -16 28 -28 38 l-21 19 6 -34z"/>
<path d="M2240 1821 c0 -23 5 -41 10 -41 6 0 10 15 10 34 0 19 -4 38 -10 41
-6 4 -10 -10 -10 -34z"/>
<path d="M2147 1836 c-20 -20 -19 -57 0 -63 13 -5 27 35 21 63 -3 17 -4 17
-21 0z"/>
<path d="M293 1794 c-4 -10 -13 -24 -21 -30 -19 -14 -11 -58 12 -62 27 -6 46
17 24 29 -10 6 -18 15 -18 21 0 6 8 17 18 24 13 10 14 15 5 25 -10 10 -14 8
-20 -7z"/>
<path d="M2178 1776 c-27 -20 -22 -36 11 -36 37 0 46 13 25 34 -18 19 -15 19
-36 2z"/>
<path d="M340 1691 c0 -12 5 -21 10 -21 6 0 10 6 10 14 0 8 -4 18 -10 21 -5 3
-10 -3 -10 -14z"/>
<path d="M233 1664 c-8 -22 10 -36 41 -32 36 4 34 18 -4 34 -27 12 -32 11 -37
-2z"/>
<path d="M2300 1650 c0 -5 7 -10 15 -10 8 0 15 5 15 10 0 6 -7 10 -15 10 -8 0
-15 -4 -15 -10z"/>
<path d="M2248 1632 c-17 -2 -28 -9 -28 -19 0 -9 6 -13 14 -10 7 3 23 -6 35
-19 15 -18 30 -24 48 -22 38 4 41 27 4 34 -17 4 -31 12 -31 20 0 17 -9 20 -42
16z"/>
<path d="M2160 1586 c0 -25 5 -48 10 -51 6 -4 10 11 10 39 0 25 -4 48 -10 51
-6 4 -10 -11 -10 -39z"/>
<path d="M261 1578 c-12 -20 -14 -20 -26 -5 -18 24 -25 21 -25 -12 0 -49 45
-47 83 4 4 6 10 0 13 -12 12 -43 40 -20 30 23 -6 21 -9 24 -21 14 -11 -9 -19
-9 -28 -2 -10 8 -16 6 -26 -10z"/>
<path d="M366 1508 c-6 -29 -6 -109 1 -167 8 -76 21 -25 21 81 -1 93 -12 136
-22 86z"/>
<path d="M2259 1520 c-14 -9 -22 -67 -10 -74 6 -4 11 -16 11 -26 0 -27 20 -36
27 -11 6 24 14 26 30 10 8 -8 13 -6 17 9 4 11 13 23 21 26 20 7 19 19 -5 46
-19 22 -69 33 -91 20z m66 -33 c24 -18 11 -37 -25 -37 -36 0 -49 19 -25 37 11
7 22 13 25 13 3 0 14 -6 25 -13z"/>
<path d="M271 1479 c-13 -5 -31 -7 -41 -4 -20 6 -52 -26 -42 -42 9 -13 92 -22
92 -9 0 5 8 18 17 28 21 24 6 39 -26 27z"/>
<path d="M2188 1470 c-4 -14 -5 -41 -2 -60 3 -20 -1 -54 -10 -79 -9 -24 -16
-61 -16 -83 0 -22 -7 -46 -15 -54 -8 -9 -15 -26 -15 -39 0 -13 -4 -27 -10 -30
-5 -3 -10 -14 -10 -25 0 -10 -8 -21 -17 -25 -10 -3 -190 -6 -401 -5 -335 1
-383 -1 -388 -15 -3 -8 -12 -15 -20 -15 -21 0 -17 -34 6 -55 11 -10 20 -24 20
-32 0 -7 -9 -13 -20 -13 -11 0 -20 7 -20 15 0 17 -35 21 -45 5 -3 -6 5 -14 19
-20 18 -7 26 -17 26 -34 0 -14 5 -28 11 -31 5 -4 15 -19 20 -33 l10 -27 37 41
c20 23 53 59 72 82 19 22 38 38 43 35 5 -3 6 8 2 26 -6 28 -4 31 19 31 23 0
25 -3 20 -30 -5 -22 -2 -31 10 -36 9 -3 16 -14 16 -23 0 -28 12 -33 27 -11 10
14 19 18 31 11 9 -4 22 -6 29 -4 19 7 63 -27 63 -48 0 -26 -16 -24 -36 6 -19
29 -34 32 -40 7 -5 -19 -47 -42 -76 -42 -13 0 -18 -8 -18 -25 0 -25 14 -33 25
-15 11 18 47 11 52 -10 3 -11 9 -20 14 -20 15 0 23 30 10 43 -16 16 -14 37 5
37 9 0 18 -9 21 -20 7 -26 30 -25 54 3 l19 22 6 -22 c9 -32 24 -28 24 5 0 16
-9 37 -20 47 -11 10 -20 22 -20 27 0 16 41 8 47 -9 4 -10 12 -22 20 -26 18
-11 17 -77 -1 -77 -20 0 -27 -26 -15 -58 12 -31 10 -37 -11 -37 -9 0 -16 -11
-18 -27 -4 -33 12 -37 30 -8 7 11 22 20 34 20 12 0 27 7 34 15 7 8 17 15 22
15 5 0 36 27 70 60 33 33 64 60 68 60 11 0 130 169 130 185 0 8 5 17 10 20 6
3 10 14 10 24 0 10 7 24 15 31 8 7 15 27 15 46 0 18 5 36 10 39 6 3 10 30 10
59 0 28 5 57 10 62 6 6 10 44 8 90 -2 53 -5 71 -10 54z m-512 -459 c20 -16 21
-21 10 -36 -13 -18 -14 -18 -20 2 -4 11 -16 23 -27 26 -12 3 -18 10 -14 16 9
16 24 14 51 -8z m355 -13 c-5 -7 -26 -32 -45 -54 -20 -23 -36 -47 -36 -53 0
-6 -11 -16 -25 -21 -14 -5 -25 -14 -25 -20 0 -5 -7 -10 -15 -10 -9 0 -18 -7
-21 -15 -4 -8 -14 -15 -24 -15 -11 0 -20 -10 -24 -25 -4 -14 -13 -25 -21 -25
-9 0 -15 10 -15 25 0 16 6 25 15 25 9 0 18 7 21 15 4 8 13 15 21 15 8 0 17 9
20 21 4 16 12 20 29 16 15 -2 24 1 24 8 0 19 35 55 54 55 9 0 16 4 16 9 0 19
-18 21 -54 6 -38 -16 -86 -20 -86 -7 0 4 17 16 38 27 20 11 42 27 48 35 10 12
14 12 28 1 13 -11 20 -11 28 -3 8 8 15 9 25 1 10 -9 14 -7 20 7 4 10 8 13 11
6 2 -6 -1 -17 -7 -24z m-609 -10 c-15 -15 -26 -4 -18 18 5 13 9 15 18 6 9 -9
9 -15 0 -24z m138 18 c0 -8 -4 -18 -10 -21 -5 -3 -10 3 -10 14 0 12 5 21 10
21 6 0 10 -6 10 -14z m305 7 c-11 -3 -27 -10 -35 -17 -13 -10 -13 -9 -1 7 7 9
23 16 35 16 20 -1 20 -2 1 -6z m-125 -13 c0 -5 -4 -10 -10 -10 -5 0 -10 5 -10
10 0 6 5 10 10 10 6 0 10 -4 10 -10z m60 -9 c17 -33 11 -42 -15 -19 -13 11
-22 25 -19 30 9 14 23 9 34 -11z m-442 -28 c-5 -21 -14 -42 -19 -47 -5 -6 -9
-18 -9 -28 0 -10 -7 -18 -16 -18 -12 0 -14 7 -9 33 4 17 10 34 14 37 4 3 12
17 18 33 19 41 33 34 21 -10z m32 -4 c0 -11 -4 -17 -10 -14 -5 3 -10 13 -10
21 0 8 5 14 10 14 6 0 10 -9 10 -21z m430 -84 c0 -24 -27 -18 -34 8 -11 40 -7
48 14 27 11 -11 20 -27 20 -35z"/>
<path d="M2245 1367 c-9 -23 2 -67 18 -67 6 1 22 9 35 20 20 16 21 22 12 40
-11 20 -12 21 -24 4 -12 -16 -14 -16 -24 2 -10 18 -11 18 -17 1z"/>
<path d="M2340 1360 c-10 -18 -9 -24 1 -31 18 -11 37 27 22 42 -8 8 -15 5 -23
-11z"/>
<path d="M315 1347 c-4 -10 -5 -21 -1 -24 10 -10 18 4 13 24 -4 17 -4 17 -12
0z"/>
<path d="M264 1314 c-5 -18 -12 -24 -25 -21 -19 5 -29 -11 -29 -44 0 -15 6
-19 32 -17 26 2 35 -2 43 -19 14 -32 45 -30 45 2 0 21 -5 25 -31 25 l-31 0 7
50 c7 53 0 68 -11 24z"/>
<path d="M2263 1233 c-8 -19 7 -34 27 -28 10 3 22 1 25 -6 9 -14 25 7 25 33 0
12 -9 16 -36 15 -20 -1 -38 -7 -41 -14z"/>
<path d="M2508 1234 c-5 -4 -8 -26 -8 -49 0 -26 -6 -48 -15 -55 -8 -7 -15 -25
-15 -41 0 -15 -4 -30 -9 -33 -5 -4 -17 -31 -26 -61 -10 -30 -22 -55 -27 -55
-5 0 -18 -19 -28 -42 -13 -29 -29 -47 -50 -57 -18 -7 -44 -33 -59 -57 -32 -50
-72 -93 -86 -94 -5 -1 -22 -19 -37 -40 -15 -22 -34 -40 -41 -40 -8 0 -19 -11
-25 -25 -7 -14 -20 -25 -31 -25 -11 0 -21 -9 -24 -21 -4 -15 -11 -20 -22 -15
-11 4 -19 -2 -25 -20 -8 -19 -15 -24 -29 -19 -14 4 -23 0 -31 -15 -6 -11 -19
-20 -30 -20 -10 0 -26 -8 -36 -17 -10 -10 -31 -19 -48 -19 -19 -1 -36 -10 -44
-23 -10 -14 -25 -21 -48 -21 -21 0 -42 -8 -54 -20 -16 -16 -34 -20 -82 -21
-36 0 -82 -8 -107 -18 l-44 -18 75 -7 c75 -7 128 3 128 24 0 5 24 10 54 10 46
0 56 3 61 20 5 15 15 20 39 20 20 0 40 8 51 20 10 11 25 20 32 20 8 0 26 9 40
20 14 11 34 20 43 20 10 0 20 9 23 20 3 11 13 20 24 20 10 0 24 9 31 20 7 11
18 20 25 20 8 0 38 25 69 55 30 30 59 55 64 55 5 0 24 23 43 50 19 28 38 50
42 50 4 0 16 14 26 30 14 25 24 30 54 30 31 0 38 -4 43 -25 4 -16 13 -25 27
-25 11 0 22 -7 25 -15 4 -8 15 -15 25 -15 10 0 24 -9 31 -20 7 -11 21 -20 30
-20 21 0 41 -35 33 -58 -5 -16 -140 -162 -150 -162 -2 0 -19 -15 -37 -33 -56
-54 -132 -114 -155 -121 -13 -4 -23 -11 -23 -15 0 -9 -74 -61 -102 -73 -10 -4
-18 -12 -18 -18 0 -5 -11 -10 -23 -10 -13 0 -32 -9 -42 -20 -10 -11 -26 -20
-36 -20 -10 0 -21 -9 -24 -20 -5 -15 -15 -20 -43 -20 -20 0 -46 -7 -56 -15
-11 -8 -35 -15 -54 -15 -26 0 -33 -4 -30 -18 5 -27 84 -29 98 -2 7 13 21 20
41 20 17 0 32 6 35 15 4 9 19 15 39 15 20 0 35 6 39 15 3 8 17 20 31 25 14 5
25 14 25 20 0 5 8 10 18 10 11 0 27 9 37 20 10 11 26 20 35 20 10 0 23 7 30
15 7 8 19 15 27 15 7 0 16 6 19 14 3 8 24 27 47 43 23 15 44 32 46 36 2 5 14
12 27 17 13 5 24 16 24 24 0 8 7 19 15 24 33 18 144 135 160 168 9 19 20 34
25 34 6 0 10 16 10 35 0 24 -5 35 -15 35 -8 0 -22 11 -31 25 -9 14 -24 25 -34
25 -10 0 -20 7 -24 15 -3 8 -15 15 -26 15 -13 0 -24 10 -30 25 -6 17 -16 25
-27 23 -24 -4 -31 53 -9 72 9 7 16 20 16 29 0 9 11 34 25 56 13 22 25 47 25
56 0 9 7 22 15 29 8 7 15 29 15 49 0 20 5 42 11 48 5 5 9 32 7 58 -2 26 -6 43
-10 39z"/>
<path d="M2216 1174 c-9 -23 10 -42 26 -26 10 10 9 16 -4 28 -14 14 -16 14
-22 -2z"/>
<path d="M234 1169 c-9 -15 32 -47 68 -55 15 -4 30 -15 33 -25 8 -23 33 -25
42 -3 7 20 -32 53 -63 54 -11 0 -29 9 -39 20 -21 23 -31 25 -41 9z"/>
<path d="M2288 1134 c-9 -8 3 -44 13 -38 11 7 12 44 1 44 -5 0 -11 -3 -14 -6z"/>
<path d="M2190 1092 c0 -15 5 -19 20 -15 24 6 21 26 -3 31 -11 2 -17 -3 -17
-16z"/>
<path d="M2261 1066 c-9 -10 -9 -16 -1 -21 17 -10 37 12 24 25 -8 8 -15 6 -23
-4z"/>
<path d="M267 1064 c-8 -8 1 -24 14 -24 5 0 9 7 9 15 0 15 -12 20 -23 9z"/>
<path d="M312 1048 c-25 -25 -12 -44 27 -38 7 1 22 -8 33 -19 10 -12 30 -21
43 -21 35 0 32 -26 -4 -33 -17 -4 -30 -14 -34 -26 -4 -18 0 -21 24 -21 19 0
32 6 36 18 4 9 14 23 22 30 15 11 15 13 0 25 -8 6 -18 20 -22 30 -3 9 -16 17
-27 17 -12 0 -33 11 -48 25 -31 29 -34 29 -50 13z"/>
<path d="M2165 1031 c-3 -11 -12 -22 -20 -25 -8 -3 -15 -12 -15 -21 0 -17 45
-21 55 -4 5 7 13 5 25 -6 10 -9 24 -14 29 -10 18 10 12 33 -9 40 -11 3 -20 10
-20 15 0 5 -9 14 -19 20 -16 8 -21 6 -26 -9z"/>
<path d="M680 991 c0 -24 4 -31 20 -31 11 0 23 -6 26 -14 3 -8 19 -19 35 -25
26 -9 29 -13 19 -31 -14 -27 -24 -25 -48 8 -16 21 -23 24 -33 15 -10 -10 -7
-20 12 -48 13 -19 29 -35 35 -35 7 0 24 -7 40 -15 15 -8 30 -13 32 -10 2 2 -2
20 -9 39 -20 56 1 66 34 17 27 -41 49 -46 61 -14 5 11 14 14 36 9 32 -6 35 -1
20 38 -6 16 -17 26 -29 26 -11 0 -23 5 -26 10 -11 18 -23 2 -18 -24 7 -37 -14
-40 -31 -5 -20 39 -20 50 -2 43 21 -8 54 25 49 47 -6 20 -23 27 -23 9 0 -14
-48 -55 -68 -57 -9 -1 -27 -5 -39 -9 -17 -5 -23 -2 -23 10 0 15 -16 35 -53 65
-15 12 -17 10 -17 -18z"/>
<path d="M324 959 c-7 -12 15 -31 28 -23 4 3 8 12 8 20 0 17 -26 19 -36 3z"/>
<path d="M1470 939 c0 -11 -13 -34 -30 -51 -35 -34 -38 -48 -11 -48 22 0 81
66 81 91 0 9 -7 20 -16 23 -23 9 -24 8 -24 -15z"/>
<path d="M2067 933 c-10 -9 -9 -53 1 -53 4 0 17 7 30 15 19 14 24 14 47 -1 31
-21 39 -15 26 20 -9 23 -16 26 -54 26 -24 0 -47 -3 -50 -7z"/>
<path d="M1695 791 c-8 -27 11 -54 21 -28 3 9 1 24 -4 33 -9 16 -10 15 -17 -5z"/>
<path d="M592 720 c-22 -21 -27 -45 -16 -74 4 -11 19 -16 49 -16 45 0 55 10
55 55 0 13 -10 29 -25 39 -31 21 -37 20 -63 -4z"/>
<path d="M1910 700 c0 -5 -7 -10 -15 -10 -19 0 -31 -48 -18 -69 12 -20 55 -26
83 -11 27 14 26 51 -3 78 -25 23 -47 29 -47 12z"/>
<path d="M2266 565 c-11 -31 -6 -73 10 -79 30 -11 32 -6 18 41 -17 55 -20 59
-28 38z"/>
<path d="M0 540 c0 -11 4 -20 9 -20 5 0 12 -9 16 -19 3 -11 24 -36 47 -58 22
-21 60 -57 84 -80 23 -24 47 -43 53 -43 6 0 15 -9 21 -20 6 -11 20 -20 31 -20
12 0 23 -8 26 -20 3 -11 14 -20 24 -20 11 0 22 -7 25 -15 4 -8 17 -15 29 -15
15 0 26 -8 30 -21 4 -12 12 -18 21 -15 8 3 20 -3 26 -14 8 -12 24 -20 40 -20
17 0 31 -8 38 -20 6 -11 21 -20 34 -20 13 0 29 -7 36 -15 7 -8 25 -15 40 -15
15 0 35 -9 45 -20 10 -11 28 -19 39 -19 44 4 66 -1 66 -16 0 -12 15 -15 72
-15 67 0 71 1 56 16 -11 12 -34 17 -72 17 -45 0 -57 3 -61 18 -5 14 -16 19
-44 19 -22 0 -44 6 -51 15 -7 8 -27 15 -46 15 -24 0 -34 5 -39 20 -4 14 -15
20 -35 20 -19 0 -33 7 -40 20 -6 11 -21 20 -34 20 -13 0 -29 7 -36 15 -7 8
-21 15 -31 15 -10 0 -23 9 -29 20 -6 11 -17 20 -24 20 -8 0 -21 11 -30 25 -9
14 -23 25 -32 25 -8 0 -17 7 -20 15 -4 8 -14 15 -25 15 -10 0 -23 9 -29 19 -5
11 -19 23 -30 26 -11 3 -20 13 -20 21 0 8 -8 17 -17 21 -10 3 -48 37 -85 74
-37 38 -70 69 -73 69 -3 0 -5 -9 -5 -20z"/>
<path d="M958 542 c-16 -19 -38 -67 -38 -82 0 -22 27 -7 62 34 l37 43 -24 11
c-18 9 -26 7 -37 -6z"/>
<path d="M1567 523 c-4 -3 -7 -21 -7 -38 0 -17 -3 -35 -6 -38 -12 -12 -43 13
-46 38 -4 32 -22 37 -26 8 -4 -24 34 -83 53 -83 22 0 55 41 55 68 0 31 -13 56
-23 45z"/>
<path d="M290 484 c0 -43 -17 -53 -32 -17 -11 27 -12 27 -15 5 -6 -29 29 -73
48 -62 7 5 19 24 25 42 6 18 17 32 23 31 6 -2 11 2 11 7 0 6 1 13 3 16 1 4
-13 8 -30 9 -31 3 -33 1 -33 -31z"/>
<path d="M1077 514 c-4 -4 -7 -25 -7 -46 0 -35 2 -38 19 -28 27 14 31 13 31
-10 0 -32 20 -23 36 17 11 26 13 42 6 57 -10 20 -11 19 -17 -11 -9 -40 -23
-43 -27 -6 -3 27 -26 41 -41 27z"/>
<path d="M1375 513 c-15 -11 -35 -50 -35 -67 0 -25 46 -53 79 -48 16 2 32 10
35 17 6 17 -4 55 -14 55 -5 0 -10 10 -12 23 -3 22 -34 34 -53 20z m43 -71 c3
-26 0 -32 -16 -32 -21 0 -38 42 -26 61 13 21 39 4 42 -29z"/>
<path d="M1277 493 c-4 -3 -7 -24 -7 -45 0 -49 23 -47 28 2 3 32 -8 56 -21 43z"/>
<path d="M2147 489 c-27 -16 -21 -31 30 -76 52 -46 74 -37 29 12 -15 16 -26
36 -26 46 0 23 -11 30 -33 18z"/>
<path d="M1208 484 c-16 -16 -8 -63 13 -74 11 -7 23 -9 27 -6 3 3 0 6 -6 6 -6
0 -14 18 -19 41 -4 22 -11 37 -15 33z"/>
<path d="M358 425 c-24 -32 -23 -68 2 -90 20 -18 20 -18 14 28 -6 39 -4 47 10
47 9 0 16 -5 16 -11 0 -16 42 -6 54 13 14 23 2 32 -25 18 -18 -10 -23 -9 -31
4 -12 21 -20 20 -40 -9z"/>
<path d="M2087 414 c-12 -12 35 -94 54 -94 17 0 9 37 -11 55 -11 10 -20 24
-20 32 0 13 -12 17 -23 7z"/>
<path d="M461 339 c-14 -18 -20 -37 -16 -47 6 -16 7 -16 19 1 18 24 23 22 30
-15 l7 -33 15 27 c8 15 23 32 34 38 20 11 27 44 11 54 -5 3 -20 -5 -32 -19
-30 -31 -37 -31 -31 0 6 34 -9 31 -37 -6z"/>
<path d="M2030 346 c0 -29 24 -56 51 -56 26 0 24 11 -9 48 -34 38 -42 40 -42
8z"/>
<path d="M1975 338 c-9 -22 35 -93 46 -76 14 21 10 35 -16 64 -19 21 -26 23
-30 12z"/>
<path d="M588 278 c-9 -28 -15 -55 -12 -60 19 -30 120 21 112 57 -5 29 -27 29
-39 1 -15 -33 -29 -24 -29 20 0 49 -12 42 -32 -18z"/>
<path d="M1877 303 c-8 -8 -7 -59 1 -91 l7 -23 23 22 c18 16 27 18 35 10 14
-14 37 -14 37 -1 0 20 -45 80 -57 75 -7 -2 -15 0 -18 5 -7 12 -19 13 -28 3z"/>
<path d="M1790 245 c-12 -36 -36 -47 -46 -20 -10 25 -24 17 -24 -13 0 -31 21
-55 58 -67 18 -5 29 0 48 20 13 14 24 30 24 35 0 10 -40 80 -45 80 -2 0 -9
-16 -15 -35z m20 -55 c0 -5 -2 -10 -4 -10 -3 0 -8 5 -11 10 -3 6 -1 10 4 10 6
0 11 -4 11 -10z"/>
<path d="M700 236 c0 -13 -4 -28 -10 -31 -5 -3 -10 -10 -10 -16 0 -5 5 -9 10
-9 6 0 10 7 10 15 0 8 7 15 16 15 10 0 14 7 12 22 -4 31 -28 35 -28 4z"/>
<path d="M761 214 c-18 -20 -30 -41 -28 -47 7 -23 26 -17 42 12 16 32 55 43
55 16 0 -15 12 -20 23 -9 8 9 -34 64 -49 64 -6 0 -26 -16 -43 -36z"/>
<path d="M880 164 c-19 -44 -19 -64 0 -64 5 0 11 9 15 20 3 11 19 32 35 47 32
30 31 43 -6 43 -20 0 -29 -9 -44 -46z"/>
<path d="M1658 205 c-3 -3 -3 -28 0 -55 3 -33 1 -50 -7 -50 -6 0 -11 6 -11 14
0 7 -7 19 -15 26 -8 7 -15 23 -15 36 0 13 -4 24 -10 24 -5 0 -10 -13 -10 -28
0 -33 57 -104 68 -85 4 6 16 13 27 15 21 4 21 10 8 67 -8 33 -23 48 -35 36z"/>
<path d="M1100 160 c0 -13 7 -20 20 -20 23 0 26 -21 8 -50 -10 -15 -10 -22 0
-32 9 -9 12 -6 12 15 0 15 4 27 10 27 9 0 45 59 38 65 -2 1 -22 5 -45 9 -39 6
-43 4 -43 -14z"/>
<path d="M1461 136 l-1 -48 31 6 c20 4 39 0 55 -11 29 -19 55 -5 29 17 -8 7
-15 25 -15 41 0 35 -16 46 -30 19 -14 -26 -34 -25 -53 3 -15 21 -16 20 -16
-27z"/>
<path d="M1260 156 c0 -7 9 -16 21 -19 16 -4 20 -12 17 -34 -2 -22 -8 -28 -28
-28 -22 0 -25 4 -22 33 4 38 -10 42 -27 6 -27 -60 42 -111 88 -65 28 28 26 62
-4 95 -26 29 -45 34 -45 12z"/>
<path d="M796 139 c-15 -14 -17 -22 -9 -30 16 -16 43 -3 43 20 0 28 -12 31
-34 10z"/>
<path d="M900 91 c0 -12 37 -24 50 -16 20 12 10 25 -20 25 -16 0 -30 -4 -30
-9z"/>
<path d="M1648 24 c-16 -8 -28 -17 -28 -19 0 -3 32 -5 70 -5 53 0 70 3 70 14
0 27 -70 34 -112 10z"/>
</g>
</svg>
